<svg width="1600" height="900" viewBox="0 0 1600 900" fill="none" xmlns="http://www.w3.org/2000/svg">
  <rect width="1600" height="900" fill="#0B1220"/>
  <rect x="74" y="74" width="1452" height="752" rx="36" fill="#111827" stroke="#1F2937" stroke-width="2"/>
  <rect x="132" y="146" width="490" height="28" rx="14" fill="#155E75"/>
  <rect x="132" y="210" width="612" height="82" rx="20" fill="#0F172A" stroke="#164E63"/>
  <text x="132" y="406" fill="white" font-family="Arial, sans-serif" font-size="82" font-weight="700">Flazz</text>
  <text x="132" y="472" fill="#9BDCF0" font-family="Arial, sans-serif" font-size="34">Local-first AI desktop coworker</text>
  <text x="132" y="560" fill="#CBD5E1" font-family="Arial, sans-serif" font-size="28">TypeScript • Electron • React • Memory • Tool workflows</text>
  <rect x="944" y="188" width="460" height="420" rx="28" fill="#0F172A" stroke="#164E63"/>
  <rect x="988" y="240" width="372" height="22" rx="11" fill="#083344"/>
  <rect x="988" y="294" width="292" height="22" rx="11" fill="#083344"/>
  <rect x="988" y="378" width="164" height="164" rx="20" fill="#155E75" fill-opacity="0.35"/>
  <rect x="1172" y="378" width="188" height="48" rx="16" fill="#164E63"/>
  <rect x="1172" y="446" width="142" height="48" rx="16" fill="#164E63" fill-opacity="0.75"/>
  <rect x="1172" y="514" width="116" height="48" rx="16" fill="#164E63" fill-opacity="0.55"/>
</svg>
